<svg xmlns="http://www.w3.org/2000/svg" xmlns:xlink="http://www.w3.org/1999/xlink" width="500" zoomAndPan="magnify" viewBox="0 0 375 374.999991" height="500" preserveAspectRatio="xMidYMid meet" version="1.0"><defs><clipPath id="5bee7dfc21"><path d="M 0 2.101562 L 372.75 2.101562 L 372.75 374.851562 L 0 374.851562 Z M 0 2.101562 " clip-rule="nonzero"/></clipPath><clipPath id="497f71c848"><path d="M 71.964844 74.066406 L 300.714844 74.066406 L 300.714844 302.816406 L 71.964844 302.816406 Z M 71.964844 74.066406 " clip-rule="nonzero"/></clipPath></defs><path fill="#e9b824" d="M 371.636719 188.546875 C 371.636719 191.578125 371.5625 194.609375 371.414062 197.636719 C 371.265625 200.664062 371.042969 203.683594 370.746094 206.699219 C 370.449219 209.714844 370.078125 212.722656 369.632812 215.722656 C 369.1875 218.71875 368.671875 221.703125 368.078125 224.675781 C 367.488281 227.648438 366.824219 230.605469 366.085938 233.546875 C 365.351562 236.484375 364.542969 239.40625 363.664062 242.304688 C 362.78125 245.207031 361.832031 248.082031 360.8125 250.9375 C 359.789062 253.789062 358.699219 256.617188 357.539062 259.417969 C 356.378906 262.21875 355.152344 264.988281 353.855469 267.726562 C 352.5625 270.46875 351.199219 273.171875 349.769531 275.847656 C 348.339844 278.519531 346.847656 281.15625 345.289062 283.753906 C 343.730469 286.355469 342.109375 288.914062 340.425781 291.433594 C 338.742188 293.953125 337 296.429688 335.191406 298.867188 C 333.386719 301.300781 331.523438 303.6875 329.601562 306.03125 C 327.679688 308.375 325.699219 310.667969 323.664062 312.914062 C 321.628906 315.160156 319.539062 317.355469 317.394531 319.496094 C 315.253906 321.640625 313.058594 323.730469 310.8125 325.765625 C 308.566406 327.800781 306.273438 329.78125 303.929688 331.703125 C 301.585938 333.625 299.199219 335.488281 296.765625 337.292969 C 294.332031 339.101562 291.851562 340.84375 289.332031 342.527344 C 286.8125 344.210938 284.253906 345.832031 281.652344 347.390625 C 279.054688 348.949219 276.417969 350.441406 273.746094 351.871094 C 271.070312 353.300781 268.367188 354.664062 265.625 355.957031 C 262.886719 357.253906 260.117188 358.480469 257.316406 359.640625 C 254.515625 360.800781 251.6875 361.890625 248.835938 362.914062 C 245.980469 363.933594 243.105469 364.882812 240.203125 365.765625 C 237.304688 366.644531 234.382812 367.453125 231.445312 368.1875 C 228.503906 368.925781 225.546875 369.589844 222.574219 370.179688 C 219.601562 370.769531 216.617188 371.289062 213.621094 371.734375 C 210.621094 372.179688 207.613281 372.550781 204.597656 372.847656 C 201.582031 373.144531 198.5625 373.367188 195.535156 373.515625 C 192.507812 373.664062 189.476562 373.738281 186.445312 373.738281 C 183.417969 373.738281 180.386719 373.664062 177.359375 373.515625 C 174.332031 373.367188 171.3125 373.144531 168.296875 372.847656 C 165.277344 372.550781 162.273438 372.179688 159.273438 371.734375 C 156.277344 371.289062 153.289062 370.769531 150.316406 370.179688 C 147.347656 369.589844 144.390625 368.925781 141.449219 368.1875 C 138.507812 367.453125 135.589844 366.644531 132.6875 365.765625 C 129.789062 364.882812 126.910156 363.933594 124.058594 362.914062 C 121.203125 361.890625 118.378906 360.800781 115.578125 359.640625 C 112.777344 358.480469 110.007812 357.253906 107.269531 355.957031 C 104.527344 354.664062 101.820312 353.300781 99.148438 351.871094 C 96.476562 350.441406 93.839844 348.949219 91.242188 347.390625 C 88.640625 345.832031 86.082031 344.210938 83.5625 342.527344 C 81.042969 340.84375 78.5625 339.101562 76.128906 337.292969 C 73.695312 335.488281 71.304688 333.625 68.964844 331.703125 C 66.621094 329.78125 64.328125 327.800781 62.082031 325.765625 C 59.835938 323.730469 57.640625 321.640625 55.496094 319.496094 C 53.355469 317.355469 51.265625 315.160156 49.230469 312.914062 C 47.195312 310.667969 45.214844 308.375 43.292969 306.03125 C 41.371094 303.6875 39.507812 301.300781 37.699219 298.867188 C 35.894531 296.429688 34.152344 293.953125 32.46875 291.433594 C 30.785156 288.914062 29.164062 286.355469 27.605469 283.753906 C 26.046875 281.15625 24.554688 278.519531 23.125 275.847656 C 21.695312 273.171875 20.332031 270.46875 19.039062 267.726562 C 17.742188 264.988281 16.511719 262.21875 15.355469 259.417969 C 14.195312 256.617188 13.105469 253.789062 12.082031 250.9375 C 11.0625 248.082031 10.109375 245.207031 9.230469 242.304688 C 8.351562 239.40625 7.542969 236.484375 6.808594 233.546875 C 6.070312 230.605469 5.40625 227.648438 4.816406 224.675781 C 4.222656 221.703125 3.707031 218.71875 3.261719 215.722656 C 2.816406 212.722656 2.445312 209.714844 2.148438 206.699219 C 1.851562 203.683594 1.628906 200.664062 1.480469 197.636719 C 1.332031 194.609375 1.257812 191.578125 1.257812 188.546875 C 1.257812 185.519531 1.332031 182.488281 1.480469 179.460938 C 1.628906 176.433594 1.851562 173.414062 2.148438 170.398438 C 2.445312 167.378906 2.816406 164.375 3.261719 161.375 C 3.707031 158.378906 4.222656 155.390625 4.816406 152.417969 C 5.40625 149.445312 6.070312 146.492188 6.808594 143.550781 C 7.542969 140.609375 8.351562 137.691406 9.230469 134.789062 C 10.109375 131.890625 11.0625 129.011719 12.082031 126.160156 C 13.105469 123.304688 14.195312 120.480469 15.355469 117.679688 C 16.511719 114.878906 17.742188 112.109375 19.039062 109.371094 C 20.332031 106.628906 21.695312 103.921875 23.125 101.25 C 24.554688 98.578125 26.046875 95.941406 27.605469 93.339844 C 29.164062 90.742188 30.785156 88.183594 32.46875 85.664062 C 34.152344 83.140625 35.894531 80.664062 37.699219 78.230469 C 39.507812 75.796875 41.371094 73.40625 43.292969 71.066406 C 45.214844 68.722656 47.195312 66.429688 49.230469 64.183594 C 51.265625 61.9375 53.355469 59.742188 55.496094 57.597656 C 57.640625 55.457031 59.835938 53.367188 62.082031 51.332031 C 64.328125 49.296875 66.621094 47.316406 68.964844 45.394531 C 71.304688 43.472656 73.695312 41.609375 76.128906 39.800781 C 78.5625 37.996094 81.042969 36.253906 83.5625 34.570312 C 86.082031 32.882812 88.640625 31.265625 91.242188 29.707031 C 93.839844 28.148438 96.476562 26.652344 99.148438 25.226562 C 101.820312 23.796875 104.527344 22.433594 107.269531 21.136719 C 110.007812 19.84375 112.777344 18.613281 115.578125 17.457031 C 118.378906 16.296875 121.203125 15.203125 124.058594 14.183594 C 126.910156 13.164062 129.789062 12.210938 132.6875 11.332031 C 135.589844 10.453125 138.507812 9.644531 141.449219 8.910156 C 144.390625 8.171875 147.347656 7.507812 150.316406 6.917969 C 153.289062 6.324219 156.277344 5.808594 159.273438 5.363281 C 162.273438 4.917969 165.277344 4.546875 168.296875 4.25 C 171.3125 3.953125 174.332031 3.730469 177.359375 3.582031 C 180.386719 3.433594 183.417969 3.359375 186.445312 3.359375 C 189.476562 3.359375 192.507812 3.433594 195.535156 3.582031 C 198.5625 3.730469 201.582031 3.953125 204.597656 4.25 C 207.613281 4.546875 210.621094 4.917969 213.621094 5.363281 C 216.617188 5.808594 219.601562 6.324219 222.574219 6.917969 C 225.546875 7.507812 228.503906 8.171875 231.445312 8.910156 C 234.382812 9.644531 237.304688 10.453125 240.203125 11.332031 C 243.105469 12.210938 245.980469 13.164062 248.835938 14.183594 C 251.6875 15.203125 254.515625 16.296875 257.316406 17.457031 C 260.117188 18.613281 262.886719 19.84375 265.625 21.136719 C 268.367188 22.433594 271.070312 23.796875 273.746094 25.226562 C 276.417969 26.652344 279.054688 28.148438 281.652344 29.707031 C 284.253906 31.265625 286.8125 32.882812 289.332031 34.570312 C 291.851562 36.253906 294.332031 37.996094 296.765625 39.800781 C 299.199219 41.609375 301.585938 43.472656 303.929688 45.394531 C 306.273438 47.316406 308.566406 49.296875 310.8125 51.332031 C 313.058594 53.367188 315.253906 55.457031 317.394531 57.597656 C 319.539062 59.742188 321.628906 61.9375 323.664062 64.183594 C 325.699219 66.429688 327.679688 68.722656 329.601562 71.066406 C 331.523438 73.40625 333.386719 75.796875 335.191406 78.230469 C 337 80.664062 338.742188 83.140625 340.425781 85.664062 C 342.109375 88.183594 343.730469 90.742188 345.289062 93.339844 C 346.847656 95.941406 348.339844 98.578125 349.769531 101.25 C 351.199219 103.921875 352.5625 106.628906 353.855469 109.371094 C 355.152344 112.109375 356.378906 114.878906 357.539062 117.679688 C 358.699219 120.480469 359.789062 123.304688 360.8125 126.160156 C 361.832031 129.011719 362.78125 131.890625 363.664062 134.789062 C 364.542969 137.691406 365.351562 140.609375 366.085938 143.550781 C 366.824219 146.492188 367.488281 149.445312 368.078125 152.417969 C 368.671875 155.390625 369.1875 158.378906 369.632812 161.375 C 370.078125 164.375 370.449219 167.378906 370.746094 170.398438 C 371.042969 173.414062 371.265625 176.433594 371.414062 179.460938 C 371.5625 182.488281 371.636719 185.519531 371.636719 188.546875 Z M 371.636719 188.546875 " fill-opacity="1" fill-rule="nonzero"/><g clip-path="url(#5bee7dfc21)"><path fill="#000000" d="M 186.445312 2.101562 C 237.933594 2.101562 284.546875 22.972656 318.285156 56.710938 C 352.027344 90.449219 372.894531 137.0625 372.894531 188.546875 C 372.894531 240.035156 352.027344 286.648438 318.285156 320.386719 C 284.542969 354.125 237.933594 374.996094 186.445312 374.996094 C 134.960938 374.996094 88.347656 354.125 54.609375 320.386719 C 20.871094 286.644531 0 240.035156 0 188.546875 C 0 137.0625 20.871094 90.449219 54.609375 56.710938 C 88.347656 22.972656 134.960938 2.101562 186.445312 2.101562 Z M 316.507812 58.488281 C 283.222656 25.203125 237.238281 4.617188 186.445312 4.617188 C 135.65625 4.617188 89.671875 25.203125 56.386719 58.488281 C 23.101562 91.773438 2.515625 137.757812 2.515625 188.546875 C 2.515625 239.339844 23.101562 285.324219 56.386719 318.609375 C 89.671875 351.894531 135.65625 372.480469 186.445312 372.480469 C 237.238281 372.480469 283.222656 351.894531 316.507812 318.609375 C 349.792969 285.324219 370.378906 239.339844 370.378906 188.546875 C 370.378906 137.757812 349.792969 91.773438 316.507812 58.488281 Z M 316.507812 58.488281 " fill-opacity="1" fill-rule="nonzero"/></g><path fill="#2945d7" d="M 54.625 26.664062 L 318.269531 26.664062 C 334.804688 26.664062 348.332031 40.191406 348.332031 56.726562 L 348.332031 320.371094 C 348.332031 336.90625 334.804688 350.433594 318.269531 350.433594 L 54.625 350.433594 C 38.089844 350.433594 24.5625 336.90625 24.5625 320.371094 L 24.5625 56.726562 C 24.5625 40.191406 38.089844 26.664062 54.625 26.664062 Z M 54.625 26.664062 " fill-opacity="1" fill-rule="evenodd"/><path fill="#000000" d="M 54.625 25.40625 L 318.269531 25.40625 C 326.882812 25.40625 334.714844 28.929688 340.390625 34.605469 C 346.066406 40.28125 349.589844 48.113281 349.589844 56.726562 L 349.589844 320.371094 C 349.589844 328.984375 346.066406 336.816406 340.390625 342.492188 C 334.714844 348.167969 326.882812 351.691406 318.269531 351.691406 L 54.625 351.691406 C 46.011719 351.691406 38.179688 348.167969 32.503906 342.492188 C 26.828125 336.816406 23.304688 328.984375 23.304688 320.371094 L 23.304688 56.726562 C 23.304688 48.113281 26.828125 40.28125 32.503906 34.605469 C 38.179688 28.929688 46.011719 25.40625 54.625 25.40625 Z M 318.269531 27.917969 L 54.625 27.917969 C 46.707031 27.917969 39.503906 31.160156 34.28125 36.382812 C 29.058594 41.605469 25.820312 48.804688 25.820312 56.726562 L 25.820312 320.371094 C 25.820312 328.292969 29.058594 335.492188 34.28125 340.714844 C 39.503906 345.9375 46.707031 349.179688 54.625 349.179688 L 318.269531 349.179688 C 326.1875 349.179688 333.390625 345.9375 338.613281 340.714844 C 343.835938 335.492188 347.074219 328.292969 347.074219 320.371094 L 347.074219 56.726562 C 347.074219 48.804688 343.835938 41.605469 338.613281 36.382812 C 333.390625 31.160156 326.1875 27.917969 318.269531 27.917969 Z M 318.269531 27.917969 " fill-opacity="1" fill-rule="nonzero"/><path fill="#000000" d="M 67.210938 68.058594 L 124.664062 68.058594 L 124.664062 70.570312 L 67.210938 70.570312 Z M 67.210938 68.058594 " fill-opacity="1" fill-rule="nonzero"/><path fill="#000000" d="M 65.957031 69.3125 L 68.46875 69.3125 L 68.46875 126.765625 L 65.957031 126.765625 Z M 65.957031 69.3125 " fill-opacity="1" fill-rule="nonzero"/><path fill="#000000" d="M 248.226562 68.058594 L 305.679688 68.058594 L 305.679688 70.570312 L 248.226562 70.570312 Z M 248.226562 68.058594 " fill-opacity="1" fill-rule="nonzero"/><path fill="#000000" d="M 304.425781 69.3125 L 306.9375 69.3125 L 306.9375 126.765625 L 304.425781 126.765625 Z M 304.425781 69.3125 " fill-opacity="1" fill-rule="nonzero"/><path fill="#000000" d="M 67.210938 306.527344 L 124.664062 306.527344 L 124.664062 309.039062 L 67.210938 309.039062 Z M 67.210938 306.527344 " fill-opacity="1" fill-rule="nonzero"/><path fill="#000000" d="M 65.957031 250.328125 L 68.46875 250.328125 L 68.46875 307.78125 L 65.957031 307.78125 Z M 65.957031 250.328125 " fill-opacity="1" fill-rule="nonzero"/><path fill="#000000" d="M 248.226562 306.527344 L 305.679688 306.527344 L 305.679688 309.039062 L 248.226562 309.039062 Z M 248.226562 306.527344 " fill-opacity="1" fill-rule="nonzero"/><path fill="#000000" d="M 304.425781 250.328125 L 306.9375 250.328125 L 306.9375 307.78125 L 304.425781 307.78125 Z M 304.425781 250.328125 " fill-opacity="1" fill-rule="nonzero"/><path fill="#e9b824" d="M 67.210938 49.953125 L 67.460938 51.292969 C 69.21875 60.710938 76.355469 67.671875 85.8125 69.191406 L 86.574219 69.3125 L 85.230469 69.5625 C 75.816406 71.316406 68.855469 78.457031 67.335938 87.910156 L 67.210938 88.675781 L 66.960938 87.332031 C 65.207031 77.917969 58.070312 70.957031 48.613281 69.4375 L 47.851562 69.3125 L 49.191406 69.0625 C 58.609375 67.308594 65.570312 60.171875 67.089844 50.714844 Z M 67.210938 49.953125 " fill-opacity="1" fill-rule="evenodd"/><path fill="#000000" d="M 68.445312 49.726562 L 68.695312 51.070312 C 69.523438 55.511719 71.621094 59.375 74.621094 62.304688 C 77.625 65.234375 81.542969 67.238281 86.007812 67.953125 L 86.769531 68.074219 L 86.796875 70.546875 L 85.457031 70.796875 C 81.015625 71.625 77.152344 73.722656 74.222656 76.722656 C 71.292969 79.726562 69.289062 83.644531 68.570312 88.109375 L 68.449219 88.871094 L 65.980469 88.902344 L 65.730469 87.558594 C 64.902344 83.117188 62.804688 79.25 59.800781 76.324219 C 56.796875 73.394531 52.882812 71.390625 48.417969 70.675781 L 47.652344 70.550781 L 47.625 68.082031 L 48.964844 67.832031 C 53.410156 67.003906 57.273438 64.90625 60.203125 61.902344 C 63.132812 58.898438 65.132812 54.984375 65.851562 50.519531 L 65.972656 49.757812 L 68.441406 49.726562 Z M 72.875 64.101562 C 70.378906 61.664062 68.4375 58.65625 67.226562 55.234375 C 66.085938 58.445312 64.296875 61.296875 62 63.652344 C 59.5625 66.152344 56.554688 68.089844 53.132812 69.300781 C 56.34375 70.441406 59.195312 72.230469 61.550781 74.527344 C 64.050781 76.964844 65.988281 79.972656 67.199219 83.394531 C 68.339844 80.183594 70.128906 77.332031 72.425781 74.976562 C 74.863281 72.476562 77.871094 70.539062 81.292969 69.328125 C 78.082031 68.1875 75.230469 66.398438 72.875 64.101562 Z M 72.875 64.101562 " fill-opacity="1" fill-rule="nonzero"/><path fill="#e9b824" d="M 305.679688 49.953125 L 305.929688 51.292969 C 307.6875 60.710938 314.824219 67.671875 324.28125 69.191406 L 325.042969 69.3125 L 323.703125 69.5625 C 314.285156 71.316406 307.324219 78.457031 305.804688 87.910156 L 305.679688 88.675781 L 305.433594 87.332031 C 303.675781 77.917969 296.539062 70.957031 287.082031 69.4375 L 286.320312 69.3125 L 287.660156 69.0625 C 297.078125 67.308594 304.039062 60.171875 305.558594 50.714844 Z M 305.679688 49.953125 " fill-opacity="1" fill-rule="evenodd"/><path fill="#000000" d="M 306.914062 49.726562 L 307.164062 51.070312 C 307.992188 55.511719 310.089844 59.375 313.09375 62.304688 C 316.097656 65.234375 320.011719 67.238281 324.476562 67.953125 L 325.238281 68.074219 L 325.269531 70.546875 L 323.925781 70.796875 C 319.484375 71.625 315.621094 73.722656 312.691406 76.722656 C 309.761719 79.726562 307.757812 83.644531 307.042969 88.109375 L 306.917969 88.871094 L 304.449219 88.898438 L 304.199219 87.558594 C 303.371094 83.117188 301.273438 79.25 298.269531 76.324219 C 295.265625 73.390625 291.351562 71.390625 286.886719 70.671875 L 286.125 70.550781 L 286.09375 68.082031 L 287.4375 67.832031 C 291.878906 67.003906 295.742188 64.90625 298.671875 61.902344 C 301.601562 58.898438 303.601562 54.984375 304.320312 50.519531 L 304.445312 49.753906 Z M 311.34375 64.101562 C 308.84375 61.664062 306.90625 58.65625 305.695312 55.234375 C 304.554688 58.445312 302.765625 61.296875 300.46875 63.652344 C 298.03125 66.148438 295.023438 68.089844 291.601562 69.300781 C 294.8125 70.441406 297.664062 72.230469 300.019531 74.527344 C 302.519531 76.964844 304.457031 79.972656 305.667969 83.394531 C 306.808594 80.183594 308.597656 77.332031 310.894531 74.976562 C 313.332031 72.476562 316.339844 70.539062 319.761719 69.328125 C 316.550781 68.1875 313.699219 66.398438 311.34375 64.101562 Z M 311.34375 64.101562 " fill-opacity="1" fill-rule="nonzero"/><path fill="#e9b824" d="M 305.679688 288.421875 L 305.929688 289.761719 C 307.6875 299.179688 314.824219 306.140625 324.28125 307.660156 L 325.042969 307.78125 L 323.703125 308.03125 C 314.285156 309.785156 307.324219 316.925781 305.804688 326.382812 L 305.679688 327.144531 L 305.433594 325.800781 C 303.675781 316.386719 296.539062 309.425781 287.082031 307.90625 L 286.320312 307.78125 L 287.660156 307.53125 C 297.078125 305.777344 304.039062 298.640625 305.558594 289.183594 Z M 305.679688 288.421875 " fill-opacity="1" fill-rule="evenodd"/><path fill="#000000" d="M 306.914062 288.195312 L 307.164062 289.539062 C 307.992188 293.980469 310.089844 297.84375 313.09375 300.773438 C 316.097656 303.703125 320.011719 305.707031 324.476562 306.421875 L 325.238281 306.546875 L 325.269531 309.015625 L 323.925781 309.265625 C 319.484375 310.09375 315.621094 312.191406 312.691406 315.195312 C 309.761719 318.199219 307.757812 322.113281 307.042969 326.578125 L 306.921875 327.339844 L 304.449219 327.371094 L 304.199219 326.027344 C 303.371094 321.585938 301.277344 317.722656 298.273438 314.792969 C 295.269531 311.863281 291.351562 309.859375 286.886719 309.144531 L 286.125 309.023438 L 286.097656 306.550781 L 287.4375 306.300781 C 291.882812 305.472656 295.746094 303.375 298.671875 300.375 C 301.605469 297.371094 303.605469 293.453125 304.324219 288.988281 L 304.445312 288.226562 Z M 311.34375 302.570312 C 308.84375 300.132812 306.90625 297.125 305.695312 293.703125 C 304.554688 296.914062 302.765625 299.765625 300.46875 302.121094 C 298.03125 304.621094 295.023438 306.558594 291.601562 307.769531 C 294.8125 308.910156 297.664062 310.699219 300.019531 312.996094 C 302.515625 315.433594 304.457031 318.445312 305.667969 321.863281 C 306.808594 318.652344 308.597656 315.800781 310.894531 313.445312 C 313.328125 310.949219 316.339844 309.011719 319.761719 307.796875 C 316.550781 306.65625 313.699219 304.867188 311.34375 302.570312 Z M 311.34375 302.570312 " fill-opacity="1" fill-rule="nonzero"/><path fill="#e9b824" d="M 67.210938 288.421875 L 67.460938 289.761719 C 69.21875 299.179688 76.355469 306.140625 85.8125 307.660156 L 86.574219 307.78125 L 85.230469 308.03125 C 75.816406 309.785156 68.855469 316.925781 67.335938 326.382812 L 67.210938 327.144531 L 66.960938 325.800781 C 65.207031 316.386719 58.070312 309.425781 48.613281 307.90625 L 47.851562 307.78125 L 49.191406 307.53125 C 58.609375 305.777344 65.570312 298.640625 67.089844 289.183594 Z M 67.210938 288.421875 " fill-opacity="1" fill-rule="evenodd"/><path fill="#000000" d="M 68.445312 288.195312 L 68.695312 289.539062 C 69.523438 293.980469 71.621094 297.84375 74.621094 300.773438 C 77.625 303.703125 81.542969 305.707031 86.007812 306.421875 L 86.769531 306.546875 L 86.800781 309.015625 L 85.457031 309.265625 C 81.015625 310.09375 77.152344 312.191406 74.222656 315.195312 C 71.292969 318.199219 69.289062 322.113281 68.574219 326.578125 L 68.449219 327.339844 L 65.980469 327.371094 L 65.730469 326.03125 C 64.902344 321.585938 62.804688 317.722656 59.800781 314.792969 C 56.796875 311.863281 52.882812 309.863281 48.417969 309.144531 L 47.65625 309.023438 L 47.625 306.550781 L 48.96875 306.300781 C 53.410156 305.476562 57.273438 303.378906 60.203125 300.375 C 63.132812 297.371094 65.136719 293.457031 65.851562 288.992188 L 65.976562 288.226562 L 68.445312 288.199219 Z M 72.875 302.570312 C 70.375 300.132812 68.4375 297.125 67.226562 293.703125 C 66.085938 296.914062 64.296875 299.765625 62 302.121094 C 59.5625 304.621094 56.554688 306.558594 53.132812 307.769531 C 56.34375 308.910156 59.195312 310.699219 61.550781 312.996094 C 64.050781 315.433594 65.988281 318.441406 67.199219 321.863281 C 68.339844 318.652344 70.128906 315.800781 72.425781 313.445312 C 74.863281 310.949219 77.871094 309.007812 81.292969 307.796875 C 78.082031 306.65625 75.230469 304.867188 72.875 302.570312 Z M 72.875 302.570312 " fill-opacity="1" fill-rule="nonzero"/><g clip-path="url(#497f71c848)"><path fill="#e5ede0" d="M 85.171875 74.066406 C 77.898438 74.066406 71.964844 80 71.964844 87.273438 L 71.964844 289.816406 C 71.964844 297.09375 77.898438 303.027344 85.171875 303.027344 L 287.714844 303.027344 C 294.992188 303.027344 300.925781 297.09375 300.925781 289.816406 L 300.925781 87.273438 C 300.925781 80 294.992188 74.066406 287.714844 74.066406 Z M 85.171875 82.871094 L 287.714844 82.871094 C 290.140625 82.871094 292.117188 84.847656 292.117188 87.273438 L 292.117188 289.816406 C 292.117188 292.242188 290.140625 294.21875 287.714844 294.21875 L 85.171875 294.21875 C 82.746094 294.21875 80.769531 292.242188 80.769531 289.816406 L 80.769531 87.273438 C 80.769531 84.847656 82.746094 82.871094 85.171875 82.871094 Z M 107.1875 100.484375 C 102.339844 100.484375 98.382812 104.4375 98.382812 109.289062 L 98.382812 144.515625 C 98.382812 149.363281 102.339844 153.320312 107.1875 153.320312 L 142.414062 153.320312 C 147.261719 153.320312 151.21875 149.363281 151.21875 144.515625 L 151.21875 109.289062 C 151.21875 104.4375 147.261719 100.484375 142.414062 100.484375 Z M 164.429688 100.484375 C 161.984375 100.484375 160.027344 102.460938 160.027344 104.886719 L 160.027344 122.5 C 160.027344 124.925781 161.984375 126.902344 164.429688 126.902344 L 177.636719 126.902344 L 177.636719 140.109375 C 177.636719 142.535156 179.597656 144.515625 182.039062 144.515625 C 184.484375 144.515625 186.445312 142.535156 186.445312 140.109375 L 186.445312 126.902344 L 204.054688 126.902344 L 204.054688 144.515625 L 190.847656 144.515625 C 188.40625 144.515625 186.445312 146.492188 186.445312 148.917969 L 186.445312 162.125 L 164.429688 162.125 C 161.984375 162.125 160.027344 164.105469 160.027344 166.53125 L 160.027344 188.546875 L 151.21875 188.546875 L 151.21875 175.335938 C 151.21875 172.910156 149.257812 170.933594 146.816406 170.933594 L 129.203125 170.933594 C 126.761719 170.933594 124.800781 172.910156 124.800781 175.335938 L 124.800781 192.949219 C 124.800781 195.375 126.761719 197.351562 129.203125 197.351562 L 160.027344 197.351562 L 160.027344 210.5625 C 160.027344 212.984375 161.984375 214.964844 164.429688 214.964844 L 186.445312 214.964844 L 186.445312 223.769531 L 173.234375 223.769531 C 170.792969 223.769531 168.832031 225.746094 168.832031 228.171875 L 168.832031 245.785156 C 168.832031 248.210938 170.792969 250.1875 173.234375 250.1875 L 190.847656 250.1875 C 193.289062 250.1875 195.25 248.210938 195.25 245.785156 L 195.25 210.5625 C 195.25 208.136719 193.289062 206.15625 190.847656 206.15625 L 168.832031 206.15625 L 168.832031 197.351562 L 204.054688 197.351562 L 204.054688 245.785156 C 204.054688 248.210938 206.015625 250.1875 208.460938 250.1875 L 226.070312 250.1875 C 228.515625 250.1875 230.476562 248.210938 230.476562 245.785156 L 230.476562 232.578125 L 248.085938 232.578125 L 248.085938 272.203125 C 248.085938 274.628906 250.046875 276.605469 252.492188 276.605469 L 270.101562 276.605469 C 272.546875 276.605469 274.507812 274.628906 274.507812 272.203125 L 274.507812 254.589844 C 274.507812 252.167969 272.546875 250.1875 270.101562 250.1875 L 256.894531 250.1875 L 256.894531 228.171875 C 256.894531 225.746094 254.933594 223.769531 252.492188 223.769531 L 230.476562 223.769531 L 230.476562 214.964844 L 270.101562 214.964844 C 272.546875 214.964844 274.507812 212.984375 274.507812 210.5625 L 274.507812 166.53125 C 274.507812 164.105469 272.546875 162.125 270.101562 162.125 L 243.683594 162.125 C 241.242188 162.125 239.28125 164.105469 239.28125 166.53125 C 239.28125 168.953125 241.242188 170.933594 243.683594 170.933594 L 265.699219 170.933594 L 265.699219 188.546875 L 252.492188 188.546875 C 250.046875 188.546875 248.085938 190.523438 248.085938 192.949219 L 248.085938 206.15625 L 226.070312 206.15625 C 223.628906 206.15625 221.667969 208.136719 221.667969 210.5625 L 221.667969 223.769531 L 212.863281 223.769531 L 212.863281 197.351562 L 226.070312 197.351562 C 228.515625 197.351562 230.476562 195.375 230.476562 192.949219 L 230.476562 175.335938 C 230.476562 172.910156 228.515625 170.933594 226.070312 170.933594 L 208.460938 170.933594 C 206.015625 170.933594 204.054688 172.910156 204.054688 175.335938 L 204.054688 188.546875 L 168.832031 188.546875 L 168.832031 170.933594 L 190.847656 170.933594 C 193.289062 170.933594 195.25 168.953125 195.25 166.53125 L 195.25 153.320312 L 208.460938 153.320312 C 210.902344 153.320312 212.863281 151.34375 212.863281 148.917969 L 212.863281 122.5 C 212.863281 120.074219 210.902344 118.097656 208.460938 118.097656 L 186.445312 118.097656 L 186.445312 104.886719 C 186.445312 102.460938 184.484375 100.484375 182.039062 100.484375 Z M 199.652344 100.484375 C 197.210938 100.484375 195.25 102.460938 195.25 104.886719 C 195.25 107.3125 197.210938 109.289062 199.652344 109.289062 L 208.460938 109.289062 C 210.902344 109.289062 212.863281 107.3125 212.863281 104.886719 C 212.863281 102.460938 210.902344 100.484375 208.460938 100.484375 Z M 230.476562 100.484375 C 225.625 100.484375 221.667969 104.4375 221.667969 109.289062 L 221.667969 144.515625 C 221.667969 149.363281 225.625 153.320312 230.476562 153.320312 L 265.699219 153.320312 C 270.550781 153.320312 274.507812 149.363281 274.507812 144.515625 L 274.507812 109.289062 C 274.507812 104.4375 270.550781 100.484375 265.699219 100.484375 Z M 107.1875 109.289062 L 142.414062 109.289062 L 142.414062 144.515625 L 107.1875 144.515625 Z M 168.832031 109.289062 L 177.636719 109.289062 L 177.636719 118.097656 L 168.832031 118.097656 Z M 230.476562 109.289062 L 265.699219 109.289062 L 265.699219 144.515625 L 230.476562 144.515625 Z M 120.398438 118.097656 C 117.957031 118.097656 115.996094 120.074219 115.996094 122.5 L 115.996094 131.304688 C 115.996094 133.730469 117.957031 135.707031 120.398438 135.707031 L 129.203125 135.707031 C 131.644531 135.707031 133.605469 133.730469 133.605469 131.304688 L 133.605469 122.5 C 133.605469 120.074219 131.644531 118.097656 129.203125 118.097656 Z M 243.683594 118.097656 C 241.242188 118.097656 239.28125 120.074219 239.28125 122.5 L 239.28125 131.304688 C 239.28125 133.730469 241.242188 135.707031 243.683594 135.707031 L 252.492188 135.707031 C 254.933594 135.707031 256.894531 133.730469 256.894531 131.304688 L 256.894531 122.5 C 256.894531 120.074219 254.933594 118.097656 252.492188 118.097656 Z M 164.429688 135.707031 C 161.984375 135.707031 160.027344 137.6875 160.027344 140.109375 L 160.027344 148.917969 C 160.027344 151.34375 161.984375 153.320312 164.429688 153.320312 C 166.871094 153.320312 168.832031 151.34375 168.832031 148.917969 L 168.832031 140.109375 C 168.832031 137.6875 166.871094 135.707031 164.429688 135.707031 Z M 102.785156 162.125 C 100.34375 162.125 98.382812 164.105469 98.382812 166.53125 C 98.382812 168.953125 100.34375 170.933594 102.785156 170.933594 L 111.589844 170.933594 C 114.035156 170.933594 115.996094 168.953125 115.996094 166.53125 C 115.996094 164.105469 114.035156 162.125 111.589844 162.125 Z M 133.605469 179.738281 L 142.414062 179.738281 L 142.414062 188.546875 L 133.605469 188.546875 Z M 212.863281 179.738281 L 221.667969 179.738281 L 221.667969 188.546875 L 212.863281 188.546875 Z M 102.785156 184.140625 C 100.34375 184.140625 98.382812 186.121094 98.382812 188.546875 C 98.382812 190.96875 100.34375 192.949219 102.785156 192.949219 L 111.589844 192.949219 C 114.035156 192.949219 115.996094 190.96875 115.996094 188.546875 C 115.996094 186.121094 114.035156 184.140625 111.589844 184.140625 Z M 256.894531 197.351562 L 265.699219 197.351562 L 265.699219 206.15625 L 256.894531 206.15625 Z M 102.785156 206.15625 C 100.34375 206.15625 98.382812 208.136719 98.382812 210.5625 C 98.382812 212.984375 100.34375 214.964844 102.785156 214.964844 L 111.589844 214.964844 C 114.035156 214.964844 115.996094 212.984375 115.996094 210.5625 C 115.996094 208.136719 114.035156 206.15625 111.589844 206.15625 Z M 129.203125 206.15625 C 126.761719 206.15625 124.800781 208.136719 124.800781 210.5625 C 124.800781 212.984375 126.761719 214.964844 129.203125 214.964844 L 146.816406 214.964844 C 149.257812 214.964844 151.21875 212.984375 151.21875 210.5625 C 151.21875 208.136719 149.257812 206.15625 146.816406 206.15625 Z M 107.1875 223.769531 C 102.339844 223.769531 98.382812 227.726562 98.382812 232.578125 L 98.382812 267.800781 C 98.382812 272.652344 102.339844 276.605469 107.1875 276.605469 L 142.414062 276.605469 C 147.261719 276.605469 151.21875 272.652344 151.21875 267.800781 L 151.21875 232.578125 C 151.21875 227.726562 147.261719 223.769531 142.414062 223.769531 Z M 270.101562 223.769531 C 267.660156 223.769531 265.699219 225.746094 265.699219 228.171875 L 265.699219 236.980469 C 265.699219 239.40625 267.660156 241.382812 270.101562 241.382812 C 272.546875 241.382812 274.507812 239.40625 274.507812 236.980469 L 274.507812 228.171875 C 274.507812 225.746094 272.546875 223.769531 270.101562 223.769531 Z M 107.1875 232.578125 L 142.414062 232.578125 L 142.414062 267.800781 L 107.1875 267.800781 Z M 177.636719 232.578125 L 186.445312 232.578125 L 186.445312 241.382812 L 177.636719 241.382812 Z M 212.863281 232.578125 L 221.667969 232.578125 L 221.667969 241.382812 L 212.863281 241.382812 Z M 120.398438 241.382812 C 117.957031 241.382812 115.996094 243.359375 115.996094 245.785156 L 115.996094 254.589844 C 115.996094 257.015625 117.957031 258.996094 120.398438 258.996094 L 129.203125 258.996094 C 131.644531 258.996094 133.605469 257.015625 133.605469 254.589844 L 133.605469 245.785156 C 133.605469 243.359375 131.644531 241.382812 129.203125 241.382812 Z M 164.429688 258.996094 C 161.984375 258.996094 160.027344 260.972656 160.027344 263.398438 L 160.027344 272.203125 C 160.027344 274.628906 161.984375 276.605469 164.429688 276.605469 C 166.871094 276.605469 168.832031 274.628906 168.832031 272.203125 L 168.832031 263.398438 C 168.832031 260.972656 166.871094 258.996094 164.429688 258.996094 Z M 186.445312 258.996094 C 184 258.996094 182.039062 260.972656 182.039062 263.398438 L 182.039062 272.203125 C 182.039062 274.628906 184 276.605469 186.445312 276.605469 C 188.886719 276.605469 190.847656 274.628906 190.847656 272.203125 L 190.847656 263.398438 C 190.847656 260.972656 188.886719 258.996094 186.445312 258.996094 Z M 208.460938 258.996094 C 206.015625 258.996094 204.054688 260.972656 204.054688 263.398438 L 204.054688 272.203125 C 204.054688 274.628906 206.015625 276.605469 208.460938 276.605469 C 210.902344 276.605469 212.863281 274.628906 212.863281 272.203125 L 212.863281 263.398438 C 212.863281 260.972656 210.902344 258.996094 208.460938 258.996094 Z M 230.476562 258.996094 C 228.03125 258.996094 226.070312 260.972656 226.070312 263.398438 L 226.070312 272.203125 C 226.070312 274.628906 228.03125 276.605469 230.476562 276.605469 C 232.917969 276.605469 234.878906 274.628906 234.878906 272.203125 L 234.878906 263.398438 C 234.878906 260.972656 232.917969 258.996094 230.476562 258.996094 Z M 256.894531 258.996094 L 265.699219 258.996094 L 265.699219 267.800781 L 256.894531 267.800781 Z M 256.894531 258.996094 " fill-opacity="1" fill-rule="nonzero"/></g></svg>